<?xml version="1.0" standalone="no"?>
<!DOCTYPE svg PUBLIC "-//W3C//DTD SVG 20010904//EN"
 "http://www.w3.org/TR/2001/REC-SVG-20010904/DTD/svg10.dtd">
<svg version="1.0" xmlns="http://www.w3.org/2000/svg"
 width="260.000000pt" height="260.000000pt" viewBox="0 0 260.000000 260.000000"
 preserveAspectRatio="xMidYMid meet">
<metadata>
Created by potrace 1.11, written by Peter Selinger 2001-2013
</metadata>
<g transform="translate(0.000000,260.000000) scale(0.100000,-0.100000)"
fill="#000000" stroke="none">
<path d="M1132 2590 c-549 -78 -984 -480 -1103 -1020 -31 -138 -33 -389 -5
-520 55 -253 163 -462 333 -641 188 -197 409 -322 673 -380 138 -31 389 -33
520 -5 253 55 462 163 641 333 197 188 322 409 380 673 31 138 33 389 5 520
-55 253 -163 462 -333 641 -184 193 -399 317 -653 375 -118 28 -348 40 -458
24z m-22 -696 c70 -27 126 -70 157 -119 15 -24 30 -44 33 -44 3 0 17 19 32 44
75 123 297 180 461 119 103 -40 198 -138 239 -249 21 -58 22 -76 26 -478 l3
-418 -123 3 -123 3 -5 395 c-5 417 -5 415 -54 468 -34 38 -77 55 -137 55 -86
-1 -139 -37 -176 -118 -16 -36 -18 -80 -21 -422 l-3 -383 -119 0 -119 0 -3
383 c-3 342 -5 386 -21 422 -37 81 -90 117 -177 118 -68 0 -108 -20 -154 -76
l-31 -39 -5 -401 -5 -402 -122 -3 -123 -3 0 394 c0 417 4 455 51 554 45 94
147 179 249 208 71 19 208 14 270 -11z"/>
</g>
</svg>
